name analog
datacolumns 19
datarows 42
range 0.0 0.0205
endheader
time	ground_force_vx	ground_force_vy	ground_force_vz	ground_force_px	ground_force_py	ground_force_pz	l_ground_force_vx	l_ground_force_vy	l_ground_force_vz	l_ground_force_px	l_ground_force_py	l_ground_force_pz	ground_torque_x	ground_torque_y	ground_torque_z	l_ground_torque_x	l_ground_torque_y	l_ground_torque_z
0.0	-0.0	-0.0	-0.0	32.21879577636719	11.929686546325684	-723.84033203125	-7.4517059326171875	2.282890796661377	-44.2475700378418	-35.09139633178711	16.222766876220703	75.65772247314453	-0.0	-0.0	-0.0	17798.12109375	6640.0029296875	-3340.66748046875
0.0005	-0.0	-0.0	-0.0	31.72127342224121	11.864252090454102	-737.6281127929688	-8.512965202331543	3.25435471534729	-37.01007080078125	-35.01593399047852	16.02878761291504	75.19619750976562	-0.0	-0.0	-0.0	14674.7158203125	5290.94140625	-3485.02099609375
0.001	-0.0	-0.0	-0.0	31.70736122131348	12.38912582397461	-747.7756958007812	-9.669475555419922	3.774105072021485	-30.443944931030277	-34.954811096191406	16.293819427490234	75.91697692871094	-0.0	-0.0	-0.0	11983.1083984375	4169.37353515625	-3735.6181640625
0.0015	-0.0	-0.0	-0.0	31.36006546020508	12.520959854125977	-758.92822265625	-10.58032512664795	4.151119232177734	-24.64223289489746	-35.015869140625	16.075904846191406	76.06498718261719	-0.0	-0.0	-0.0	9467.3984375	3278.602294921875	-3870.734130859375
0.002	-0.0	-0.0	-0.0	31.125030517578125	13.48217487335205	-767.4973754882812	-0.0	-0.0	-0.0	-34.83692169189453	16.142356872558594	74.95634460449219	-0.0	-0.0	-0.0	-0.0	-0.0	-0.0
0.0025	-0.0	-0.0	-0.0	30.665023803710938	13.660322189331056	-774.0584716796875	-0.0	-0.0	-0.0	-34.99824142456055	16.180072784423828	75.65839385986328	-0.0	-0.0	-0.0	-0.0	-0.0	-0.0
0.003	-0.0	-0.0	-0.0	29.9747314453125	13.81521224975586	-780.2307739257812	-0.0	-0.0	-0.0	-34.80793762207031	16.127742767333984	75.82866668701172	-0.0	-0.0	-0.0	-0.0	-0.0	-0.0
0.0035	-0.0	-0.0	-0.0	30.167409896850582	12.975595474243164	-785.3237915039062	-0.0	-0.0	-0.0	-34.82233047485352	16.081445693969727	74.40185546875	-0.0	-0.0	-0.0	-0.0	-0.0	-0.0
0.004	-0.0	-0.0	-0.0	29.94606590270996	12.337400436401367	-789.3919067382812	-0.0	-0.0	-0.0	-34.68074417114258	16.156875610351562	76.71162414550781	-0.0	-0.0	-0.0	-0.0	-0.0	-0.0
0.0045000000000000005	-0.0	-0.0	-0.0	30.043710708618164	11.719267845153809	-797.070068359375	-0.0	-0.0	-0.0	-34.86604309082031	15.991704940795898	76.30335998535156	-0.0	-0.0	-0.0	-0.0	-0.0	-0.0
0.005	-0.0	-0.0	-0.0	30.96453666687012	11.282212257385254	-800.7161254882812	-0.0	-0.0	-0.0	-34.992942810058594	16.052196502685547	75.54377746582031	-0.0	-0.0	-0.0	-0.0	-0.0	-0.0
0.0055	-0.0	-0.0	-0.0	31.83363151550293	11.661574363708496	-806.309814453125	-0.0	-0.0	-0.0	-35.08940887451172	16.389318466186523	74.78352355957031	-0.0	-0.0	-0.0	-0.0	-0.0	-0.0
0.006	-0.0	-0.0	-0.0	32.81324005126953	11.690666198730469	-811.1322631835938	-0.0	-0.0	-0.0	-34.56827926635742	16.366788864135742	74.84098052978516	-0.0	-0.0	-0.0	-0.0	-0.0	-0.0
0.006500000000000001	-0.0	-0.0	-0.0	33.60970687866211	11.33418083190918	-812.9043579101562	-0.0	-0.0	-0.0	-35.00800704956055	16.052101135253906	75.68898010253906	-0.0	-0.0	-0.0	-0.0	-0.0	-0.0
0.007	-0.0	-0.0	-0.0	33.899993896484375	10.354781150817873	-814.70068359375	-0.0	-0.0	-0.0	-34.62778854370117	16.104564666748047	75.04512023925781	-0.0	-0.0	-0.0	-0.0	-0.0	-0.0
0.0075	-0.0	-0.0	-0.0	34.00398635864258	9.797212600708008	-817.2584228515625	-0.0	-0.0	-0.0	-35.015480041503906	16.104564666748047	75.57257843017578	-0.0	-0.0	-0.0	-0.0	-0.0	-0.0
0.008	-0.0	-0.0	-0.0	33.81078338623047	9.60370922088623	-816.493408203125	-0.0	-0.0	-0.0	-34.56817626953125	16.434179306030273	76.74046325683594	-0.0	-0.0	-0.0	-0.0	-0.0	-0.0
0.0085	-0.0	-0.0	-0.0	32.509788513183594	9.99747371673584	-817.405517578125	-0.0	-0.0	-0.0	-34.657596588134766	16.224950790405273	74.57483673095703	-0.0	-0.0	-0.0	-0.0	-0.0	-0.0
0.009000000000000001	-0.0	-0.0	-0.0	31.617647171020508	10.249996185302734	-815.845703125	-0.0	-0.0	-0.0	-35.098114013671875	16.097789764404297	76.42152404785156	-0.0	-0.0	-0.0	-0.0	-0.0	-0.0
0.0095	-0.0	-0.0	-0.0	30.436691284179688	11.21542739868164	-812.1669921875	-0.0	-0.0	-0.0	-34.88880157470703	16.051908493041992	76.07091522216797	-0.0	-0.0	-0.0	-0.0	-0.0	-0.0
0.01	-0.0	-0.0	-0.0	28.53349876403809	12.678499221801758	-807.396728515625	-0.0	-0.0	-0.0	-34.88880157470703	16.073772430419922	76.30206298828125	-0.0	-0.0	-0.0	-0.0	-0.0	-0.0
0.0105	-0.0	-0.0	-0.0	26.726119995117188	14.195257186889648	-801.925048828125	-0.0	-0.0	-0.0	-34.799346923828125	16.120037078857422	75.57542419433594	-0.0	-0.0	-0.0	-0.0	-0.0	-0.0
0.011	-0.0	-0.0	-0.0	24.27392196655273	14.617385864257812	-799.0997924804688	-0.0	-0.0	-0.0	-34.96887969970703	15.992932319641112	75.06695556640625	-0.0	-0.0	-0.0	-0.0	-0.0	-0.0
0.0115	-0.0	-0.0	-0.0	22.376583099365234	14.571663856506348	-795.62841796875	-0.0	-0.0	-0.0	-34.65740966796875	16.135730743408203	75.41743469238281	-0.0	-0.0	-0.0	-0.0	-0.0	-0.0
0.012	-0.0	-0.0	-0.0	21.61055374145508	15.047721862792969	-791.451416015625	-0.0	-0.0	-0.0	-35.18832015991211	16.008758544921875	76.77466583251953	-0.0	-0.0	-0.0	-0.0	-0.0	-0.0
0.0125	-0.0	-0.0	-0.0	20.71224403381348	15.299647331237791	-788.3954467773438	-0.0	-0.0	-0.0	-34.851898193359375	15.93471336364746	74.25707244873047	-0.0	-0.0	-0.0	-0.0	-0.0	-0.0
0.013000000000000001	-0.0	-0.0	-0.0	19.961713790893555	15.093894958496094	-782.6705322265625	-0.0	-0.0	-0.0	-34.799346923828125	16.284503936767578	75.24847412109375	-0.0	-0.0	-0.0	-0.0	-0.0	-0.0
0.0135	-0.0	-0.0	-0.0	19.15893173217773	14.832459449768066	-778.431640625	-0.0	-0.0	-0.0	-34.70988464355469	16.279142379760742	74.7528076171875	-0.0	-0.0	-0.0	-0.0	-0.0	-0.0
0.014	-0.0	-0.0	-0.0	18.130949020385746	14.9427490234375	-773.3800659179688	-0.0	-0.0	-0.0	-35.104530334472656	15.892775535583496	75.82583618164062	-0.0	-0.0	-0.0	-0.0	-0.0	-0.0
0.0145	-0.0	-0.0	-0.0	17.1127986907959	14.995064735412598	-769.7026977539062	-0.0	-0.0	-0.0	-34.94654083251953	15.99864387512207	75.18589782714844	-0.0	-0.0	-0.0	-0.0	-0.0	-0.0
0.015	-0.0	-0.0	-0.0	15.637860298156738	15.1835298538208	-766.3383178710938	-0.0	-0.0	-0.0	-34.88880157470703	16.210561752319336	75.4547119140625	-0.0	-0.0	-0.0	-0.0	-0.0	-0.0
0.0155	-0.0	-0.0	-0.0	13.895889282226562	15.047282218933104	-762.86865234375	-0.0	-0.0	-0.0	-34.55168151855469	16.08846092224121	75.18501281738281	-0.0	-0.0	-0.0	-0.0	-0.0	-0.0
0.016	-0.0	-0.0	-0.0	11.68657684326172	14.90565299987793	-759.8778076171875	-0.0	-0.0	-0.0	-34.87275695800781	16.300643920898438	75.47278594970703	-0.0	-0.0	-0.0	-0.0	-0.0	-0.0
0.0165	-0.0	-0.0	-0.0	9.52474308013916	15.682056427001951	-756.9902954101562	-0.0	-0.0	-0.0	-34.93717956542969	16.190092086791992	76.1566162109375	-0.0	-0.0	-0.0	-0.0	-0.0	-0.0
0.017	-0.0	-0.0	-0.0	8.29186725616455	15.435503005981444	-755.1432495117188	-0.0	-0.0	-0.0	-35.14097595214844	16.071979522705078	76.28372955322266	-0.0	-0.0	-0.0	-0.0	-0.0	-0.0
0.0175	-0.0	-0.0	-0.0	7.006470203399658	14.448244094848633	-752.2551879882812	-0.0	-0.0	-0.0	-35.136837005615234	16.198638916015625	75.53450775146484	-0.0	-0.0	-0.0	-0.0	-0.0	-0.0
0.018000000000000002	-0.0	-0.0	-0.0	5.453474998474121	14.70651626586914	-751.422119140625	-0.0	-0.0	-0.0	-34.7667236328125	16.104564666748047	75.0397720336914	-0.0	-0.0	-0.0	-0.0	-0.0	-0.0
0.0185	-0.0	-0.0	-0.0	4.188647747039795	14.317736625671388	-750.3458862304688	-0.0	-0.0	-0.0	-34.799346923828125	16.067819595336914	74.40185546875	-0.0	-0.0	-0.0	-0.0	-0.0	-0.0
0.019	-0.0	-0.0	-0.0	3.1426446437835693	14.54446029663086	-750.587646484375	-0.0	-0.0	-0.0	-34.80291748046875	16.141271591186523	77.68959045410156	-0.0	-0.0	-0.0	-0.0	-0.0	-0.0
0.0195	-0.0	-0.0	-0.0	1.8857181072235107	14.098846435546877	-750.7005004882812	-0.0	-0.0	-0.0	-35.12070083618164	15.957816123962402	75.99987030029297	-0.0	-0.0	-0.0	-0.0	-0.0	-0.0
0.02	-0.0	-0.0	-0.0	1.5492451190948486	14.02610969543457	-750.7462158203125	-0.0	-0.0	-0.0	-34.819210052490234	15.764663696289062	75.93572998046875	-0.0	-0.0	-0.0	-0.0	-0.0	-0.0
0.0205	-0.0	-0.0	-0.0	1.0269575119018557	13.422322273254396	-750.3490600585938	-0.0	-0.0	-0.0	-35.17692947387695	16.394336700439453	76.07913208007812	-0.0	-0.0	-0.0	-0.0	-0.0	-0.0
